<svg height="504pt" viewBox="0 0 504 504" width="504pt" xmlns="http://www.w3.org/2000/svg"><path d="m300 136c-37.496094 0-68-30.503906-68-68s30.503906-68 68-68 68 30.503906 68 68-30.503906 68-68 68zm0-128c-33.089844 0-60 26.910156-60 60s26.910156 60 60 60 60-26.910156 60-60-26.910156-60-60-60zm0 0" fill="#263238"/><path d="m344.375 30.992188 4.769531-3.96875c-11.738281-14.0625-29.390625-23.023438-49.144531-23.023438-35.34375 0-64 28.65625-64 64h6.039062c37.394532 0 73.59375-13.089844 102.335938-37.007812zm0 0" fill="#FCB600"/><g fill="#263238"><path d="m242.039062 72h-6.039062c-2.207031 0-4-1.792969-4-4 0-37.496094 30.503906-68 68-68 20.207031 0 39.238281 8.921875 52.207031 24.464844.679688.816406 1.007813 1.863281.914063 2.925781-.097656 1.058594-.609375 2.035156-1.425782 2.714844l-4.765624 3.964843s0 0-.007813 0c-29.386719 24.457032-66.640625 37.929688-104.882813 37.929688zm-1.902343-8h1.902343c36.386719 0 71.816407-12.816406 99.785157-36.078125l1.582031-1.320313c-11.308594-11.867187-26.910156-18.601562-43.40625-18.601562-31.742188 0-57.808594 24.777344-59.863281 56zm104.238281-33h.082031zm0 0"/><path d="m356.015625 320.03125h-112.015625c-2.207031 0-4-1.792969-4-4v-108.015625h-120c-13.230469 0-24-10.769531-24-24s10.769531-24 24-24h100.855469l51.136719-22.726563v-9.992187c0-1.335937.664062-2.578125 1.769531-3.320313 1.109375-.738281 2.496093-.886718 3.734375-.390624 14.441406 5.839843 30.59375 5.839843 45 0 1.222656-.507813 2.625-.363282 3.734375.390624 1.105469.742188 1.769531 1.984376 1.769531 3.320313v9.984375l51.144531 22.726562h100.855469c13.230469 0 24 10.769532 24 24 0 13.230469-10.769531 24-24 24h-119.984375v108.015626c0 2.222656-1.792969 4.007812-4 4.007812zm-108.015625-8h104.015625v-108.015625c0-2.207031 1.792969-4 4-4h123.984375c8.824219 0 16-7.175781 16-16s-7.175781-16-16-16h-101.71875c-.5625 0-1.113281-.121094-1.625-.34375l-54.289062-24.128906c-1.445313-.648438-2.375-2.070313-2.375-3.65625v-6.910157c-12.96875 4.007813-27.015626 4.015626-40-.007812v6.917969c0 1.585937-.929688 3.007812-2.375 3.65625l-54.28125 24.128906c-.503907.222656-1.0625.34375-1.625.34375h-101.710938c-8.824219 0-16 7.175781-16 16s7.175781 16 16 16h124c2.207031 0 4 1.792969 4 4zm0 0"/><path d="m431.246094 504c-15.140625 0-27.742188-11.839844-28.695313-26.953125l-6.3125-101.015625h-112.832031l-18.398438 42.457031c-5.265624 12.105469-13.71875 22.519531-24.464843 30.136719l-67.894531 48.09375c-12.496094 8.855469-29.472657 6.761719-39.441407-4.855469-5.269531-6.128906-7.757812-13.933593-7-21.984375.761719-8.054687 4.65625-15.261718 10.984375-20.3125l68.152344-54.359375 34.992188-80.757812c.632812-1.464844 2.078124-2.410157 3.671874-2.410157h163.992188c28.671875 0 52 23.328126 52 52v111.21875c0 15.847657-12.894531 28.742188-28.753906 28.742188zm-150.460938-135.96875h119.214844c2.113281 0 3.855469 1.640625 3.992188 3.753906l6.542968 104.757813c.6875 10.90625 9.785156 19.457031 20.710938 19.457031 11.449218 0 20.753906-9.3125 20.753906-20.742188v-111.226562c0-24.261719-19.742188-44-44-44h-161.367188l-34.34375 79.265625c-.265624.597656-.664062 1.128906-1.175781 1.535156l-68.929687 54.984375c-4.609375 3.671875-7.457032 8.9375-8 14.800782-.550782 5.863281 1.257812 11.558593 5.097656 16.023437 7.277344 8.464844 19.621094 10 28.75 3.535156l67.898438-48.097656c9.542968-6.757813 17.070312-16.023437 21.742187-26.78125l19.449219-44.863281c.621094-1.449219 2.0625-2.402344 3.664062-2.402344zm0 0"/><path d="m112 240h-12c-2.207031 0-4-1.792969-4-4s1.792969-4 4-4h12c2.207031 0 4 1.792969 4 4s-1.792969 4-4 4zm0 0"/><path d="m198 240h-72c-2.207031 0-4-1.792969-4-4s1.792969-4 4-4h72c2.207031 0 4 1.792969 4 4s-1.792969 4-4 4zm0 0"/><path d="m474 136h-72c-2.207031 0-4-1.792969-4-4s1.792969-4 4-4h72c2.207031 0 4 1.792969 4 4s-1.792969 4-4 4zm0 0"/><path d="m500 136h-12c-2.207031 0-4-1.792969-4-4s1.792969-4 4-4h12c2.207031 0 4 1.792969 4 4s-1.792969 4-4 4zm0 0"/><path d="m42.078125 44h-32c-2.207031 0-4-1.792969-4-4s1.785156-4 4-4h32c2.210937 0 4 1.792969 4 4s-1.789063 4-4 4zm0 0"/><path d="m26.078125 60c-2.207031 0-4-1.792969-4-4v-32c0-2.207031 1.792969-4 4-4 2.210937 0 4 1.792969 4 4v32c0 2.207031-1.789063 4-4 4zm0 0"/><path d="m90.078125 92h-32c-2.207031 0-4-1.792969-4-4s1.785156-4 4-4h32c2.210937 0 4 1.792969 4 4s-1.789063 4-4 4zm0 0"/><path d="m74.078125 108c-2.207031 0-4-1.792969-4-4v-32c0-2.207031 1.792969-4 4-4 2.210937 0 4 1.792969 4 4v32c0 2.207031-1.789063 4-4 4zm0 0"/><path d="m52 504c-13.886719 0-26.945312-5.40625-36.769531-15.230469s-15.230469-22.882812-15.230469-36.769531 5.414062-26.945312 15.230469-36.769531c9.816406-9.824219 22.882812-15.230469 36.769531-15.230469s26.953125 5.40625 36.777344 15.230469c20.269531 20.273437 20.269531 53.265625 0 73.539062-9.824219 9.824219-22.890625 15.230469-36.777344 15.230469zm0-96c-11.753906 0-22.800781 4.574219-31.113281 12.886719s-12.886719 19.359375-12.886719 31.113281 4.574219 22.808594 12.886719 31.113281c8.3125 8.3125 19.359375 12.886719 31.113281 12.886719s22.808594-4.574219 31.121094-12.886719 12.878906-19.359375 12.878906-31.113281-4.566406-22.800781-12.878906-31.113281-19.367188-12.886719-31.121094-12.886719zm33.945312 77.945312h.078126zm0 0"/><path d="m99.871094 458.625c-.359375 0-.726563-.050781-1.09375-.152344-10.832032-3.074218-22.425782-10.394531-32.640625-20.609375-10.207031-10.207031-17.519531-21.800781-20.609375-32.640625-.597656-2.125.632812-4.335937 2.761718-4.941406 2.144532-.609375 4.34375.628906 4.941407 2.75 2.671875 9.417969 9.441406 20.046875 18.5625 29.167969 9.144531 9.128906 19.773437 15.898437 29.167969 18.570312 2.128906.605469 3.359374 2.816407 2.757812 4.941407-.496094 1.761718-2.101562 2.914062-3.847656 2.914062zm0 0"/><path d="m54.625 503.871094c-1.746094 0-3.34375-1.152344-3.839844-2.902344-2.679687-9.410156-9.449218-20.03125-18.578125-29.167969-9.128906-9.128906-19.757812-15.898437-29.167969-18.570312-2.128906-.605469-3.359374-2.816407-2.757812-4.941407.597656-2.128906 2.796875-3.378906 4.941406-2.753906 10.832032 3.082032 22.433594 10.402344 32.640625 20.609375 10.207031 10.214844 17.527344 21.808594 20.609375 32.640625.605469 2.125-.625 4.335938-2.753906 4.941406-.367188.105469-.734375.144532-1.09375.144532zm0 0"/></g><path d="m323.992188 139.886719v-.207031c-4.878907 8.214843-13.753907 13.785156-24 13.785156-10.257813 0-19.128907-5.570313-24-13.792969v.214844l-32 14.226562v161.917969h112.015624v-161.910156zm0 0" fill="#71BF41"/><path d="m356.015625 320.03125h-112.015625c-2.207031 0-4-1.792969-4-4v-161.917969c0-1.585937.929688-3.007812 2.375-3.65625l31.289062-13.90625c.375-.285156.808594-.496093 1.265626-.621093 1.726562-.472657 3.566406.148437 4.496093 1.703124 4.40625 7.40625 12.09375 11.832032 20.566407 11.832032 8.472656 0 16.160156-4.417969 20.550781-11.824219.921875-1.542969 2.761719-2.28125 4.496093-1.816406.609376.167969 1.160157.472656 1.601563.871093l30.992187 13.769532c1.445313.648437 2.375 2.070312 2.375 3.65625v161.910156c.007813 2.214844-1.785156 4-3.992187 4zm-108.015625-8h104.015625v-155.3125l-26.6875-11.863281c-6.039063 7.960937-15.257813 12.609375-25.328125 12.609375s-19.296875-4.648438-25.335938-12.609375l-26.664062 11.847656zm0 0" fill="#263238"/><path d="m408 316.03125h-163.992188l-35.390624 81.671875-41.128907 32.808594 32.953125 41.617187 37.796875-26.777344c10.152344-7.183593 18.136719-17.023437 23.105469-28.457031l19.441406-44.863281h119.214844l4.496094 71.96875h51.503906v-79.96875c0-26.503906-21.488281-48-48-48zm0 0" fill="#71BF41"/><path d="m200.441406 476.136719c-1.175781 0-2.351562-.519531-3.136718-1.511719l-32.945313-41.617188c-1.367187-1.726562-1.085937-4.238281.640625-5.609374l40.34375-32.183594 34.992188-80.757813c.632812-1.464843 2.078124-2.410156 3.671874-2.410156h163.992188c28.671875 0 52 23.328125 52 52v79.953125c0 2.207031-1.792969 4-4 4h-51.503906c-2.113282 0-3.855469-1.640625-3.992188-3.753906l-4.265625-68.214844h-112.832031l-18.390625 42.457031c-5.261719 12.105469-13.71875 22.519531-24.464844 30.136719l-37.808593 26.773438c-.695313.496093-1.503907.738281-2.300782.738281zm-27.335937-44.976563 28.117187 35.519532 34.714844-24.582032c9.542969-6.761718 17.070312-16.027344 21.742188-26.785156l19.441406-44.863281c.632812-1.464844 2.078125-2.410157 3.671875-2.410157h119.207031c2.113281 0 3.855469 1.640626 3.992188 3.753907l4.265624 68.214843h43.742188v-75.96875c0-24.261718-19.742188-44-44-44h-161.367188l-34.34375 79.265626c-.265624.597656-.664062 1.128906-1.175781 1.535156zm0 0" fill="#263238"/><path d="m85.945312 489.945312c-1.023437 0-2.050781-.394531-2.832031-1.167968l-67.882812-67.882813c-1.558594-1.558593-1.558594-4.09375 0-5.65625 1.5625-1.558593 4.097656-1.558593 5.65625 0l67.882812 67.882813c1.558594 1.558594 1.558594 4.09375 0 5.65625-.777343.773437-1.800781 1.167968-2.824219 1.167968zm0 0" fill="#263238"/></svg>