<svg height="472pt" viewBox="-16 0 472 472" width="472pt" xmlns="http://www.w3.org/2000/svg">
    <g fill="#263238">
        <path d="m436 72h-32c-2.207031 0-4-1.792969-4-4s1.792969-4 4-4h32c2.207031 0 4 1.792969 4 4s-1.792969 4-4 4zm0 0"/>
        <path d="m396 24h-32c-2.207031 0-4-1.792969-4-4s1.792969-4 4-4h32c2.207031 0 4 1.792969 4 4s-1.792969 4-4 4zm0 0"/>
        <path d="m380 40c-2.207031 0-4-1.792969-4-4v-32c0-2.207031 1.792969-4 4-4s4 1.792969 4 4v32c0 2.207031-1.792969 4-4 4zm0 0"/>
        <path d="m420 88c-2.207031 0-4-1.792969-4-4v-32c0-2.207031 1.792969-4 4-4s4 1.792969 4 4v32c0 2.207031-1.792969 4-4 4zm0 0"/>
        <path d="m20 440h-16c-2.207031 0-4-1.792969-4-4s1.792969-4 4-4h16c2.207031 0 4 1.792969 4 4s-1.792969 4-4 4zm0 0"/>
        <path d="m116 440h-80c-2.207031 0-4-1.792969-4-4s1.792969-4 4-4h80c2.207031 0 4 1.792969 4 4s-1.792969 4-4 4zm0 0"/>
        <path d="m404 440h-16c-2.207031 0-4-1.792969-4-4s1.792969-4 4-4h16c2.207031 0 4 1.792969 4 4s-1.792969 4-4 4zm0 0"/>
        <path d="m372 440h-80c-2.207031 0-4-1.792969-4-4s1.792969-4 4-4h80c2.207031 0 4 1.792969 4 4s-1.792969 4-4 4zm0 0"/>
        <path d="m268 472c-2.207031 0-4-1.792969-4-4v-72c0-2.207031 1.792969-4 4-4s4 1.792969 4 4v72c0 2.207031-1.792969 4-4 4zm0 0"/>
        <path d="m140 472c-2.207031 0-4-1.792969-4-4l-.007812-119.617188-24.496094-21.613281c-35.265625-31.121093-55.496094-75.945312-55.496094-122.976562v-15.792969c0-90.433594 73.566406-164 164-164s164 73.566406 164 164v10.710938l36.671875 51.335937c5.238281 7.34375 5.9375 16.90625 1.808594 24.9375-4.136719 8.023437-12.304688 13.015625-21.335938 13.015625h-17.144531v48c0 35.289062-28.710938 64-64 64h-92c-2.207031 0-4-1.792969-4-4s1.792969-4 4-4h92c30.871094 0 56-25.121094 56-56v-52c0-2.207031 1.792969-4 4-4h21.144531c6.113281 0 11.429688-3.238281 14.222657-8.671875 2.800781-5.441406 2.34375-11.648437-1.207032-16.625l-37.417968-52.375c-.484376-.679687-.742188-1.496094-.742188-2.328125v-12c0-86.015625-69.984375-156-156-156s-156 69.984375-156 156v15.792969c0 44.734375 19.238281 87.375 52.792969 116.976562l25.847656 22.804688c.855469.761719 1.351563 1.851562 1.351563 3l.007812 121.425781c0 2.207031-1.792969 4-4 4zm0 0"/>
    </g>
    <path d="m264.28125 172c0 44.183594-44 80-44 80s-44-35.816406-44-80 44-80 44-80 44 35.816406 44 80zm0 0"
          fill="#FCB600"/>
    <path d="m220.28125 256c-.898438 0-1.792969-.304688-2.519531-.894531-1.859375-1.511719-45.480469-37.539063-45.480469-83.105469s43.613281-81.59375 45.480469-83.105469c1.46875-1.191406 3.574219-1.191406 5.046875 0 1.855468 1.511719 45.480468 37.539063 45.480468 83.105469s-43.617187 81.59375-45.480468 83.105469c-.738282.589843-1.632813.894531-2.527344.894531zm0-158.6875c-9.160156 8.3125-40 38.976562-40 74.6875s30.839844 66.375 40 74.6875c9.160156-8.3125 40-38.976562 40-74.6875s-30.839844-66.375-40-74.6875zm0 0"
          fill="#263238"/>
    <path d="m220 256.992188h-16c-46.320312 0-84-37.679688-84-84v-16c0-2.207032 1.792969-4 4-4h16c46.320312 0 84 37.679687 84 84v16c0 2.207031-1.792969 4-4 4zm-92-96v12c0 41.902343 34.097656 76 76 76h12v-12c0-41.902344-34.097656-76-76-76zm0 0"
          fill="#263238"/>
    <path d="m236 256.992188h-16c-2.207031 0-4-1.792969-4-4v-16c0-46.320313 37.679688-84 84-84h16c2.207031 0 4 1.792968 4 4v16c0 46.320312-37.679688 84-84 84zm-12-8h12c41.902344 0 76-34.097657 76-76v-12h-12c-41.902344 0-76 34.097656-76 76zm0 0"
          fill="#263238"/>
</svg>