<svg height="488pt" viewBox="0 -48 488 488" width="488pt" xmlns="http://www.w3.org/2000/svg">
    <path d="m172 160c-19.847656 0-36-16.152344-36-36s16.152344-36 36-36 36 16.152344 36 36-16.152344 36-36 36zm0-64c-15.441406 0-28 12.558594-28 28s12.558594 28 28 28 28-12.558594 28-28-12.558594-28-28-28zm0 0"
          fill="#263238"/>
    <path d="m140 184h-68c-8.824219 0-16-7.175781-16-16s7.175781-16 16-16h68c2.207031 0 4 1.792969 4 4v24c0 2.207031-1.792969 4-4 4zm-68-24c-4.40625 0-8 3.59375-8 8s3.59375 8 8 8h64v-16zm0 0"
          fill="#263238"/>
    <path d="m204.003906 248h-64v-92h64zm0 0" fill="#FCB600"/>
    <path d="m204 252h-64c-2.207031 0-4-1.792969-4-4v-92c0-2.207031 1.792969-4 4-4h64c2.207031 0 4 1.792969 4 4v92c0 2.207031-1.792969 4-4 4zm-60-8h56v-84h-56zm0 0"
          fill="#263238"/>
    <path d="m188 392c-11.023438 0-20-8.976562-20-20v-99.625l-9.207031 18.105469c.742187.726562 1.207031 1.742187 1.207031 2.863281 0 2.207031-1.792969 4-4 4h-3.160156c-1.390625 0-2.679688-.71875-3.40625-1.910156-.730469-1.1875-.785156-2.664063-.160156-3.90625l19.160156-37.65625c.445312-.871094 1.175781-1.527344 2.03125-1.878906h-28l-19.976563 39.246093c-3.191406 6.273438-3.433593 13.355469-.648437 18.945313 3.433594 6.878906 10.3125 11.160156 17.945312 11.160156h16.214844c2.207031 0 4 1.792969 4 4s-1.792969 4-4 4h-16.199219c-10.6875 0-20.304687-5.976562-25.097656-15.582031-3.910156-7.851563-3.664063-17.625.664063-26.144531l21.089843-41.433594c.679688-1.34375 2.054688-2.183594 3.558594-2.183594h63.984375c2.207031 0 4 1.792969 4 4v124c0 11.023438-8.976562 20-20 20zm-14.472656-140c1.480468.609375 2.472656 2.054688 2.472656 3.695312v116.304688c0 6.617188 5.382812 12 12 12s12-5.382812 12-12v-120zm0 0"
          fill="#263238"/>
    <path d="m308 104c-24.257812 0-44-19.734375-44-44s19.742188-44 44-44 44 19.734375 44 44-19.742188 44-44 44zm0-80c-19.847656 0-36 16.152344-36 36s16.152344 36 36 36 36-16.152344 36-36-16.152344-36-36-36zm0 0"
          fill="#263238"/>
    <path d="m428 136h-80c-2.207031 0-4-1.792969-4-4v-32c0-2.207031 1.792969-4 4-4h80c11.03125 0 20 8.976562 20 20s-8.96875 20-20 20zm-76-8h76c6.617188 0 12-5.382812 12-12s-5.382812-12-12-12h-76zm0 0"
          fill="#263238"/>
    <path d="m268 100h80v120h-80zm0 0" fill="#71BF41"/>
    <g fill="#263238">
        <path d="m348 224h-80c-2.207031 0-4-1.792969-4-4v-120c0-2.207031 1.792969-4 4-4h80c2.207031 0 4 1.792969 4 4v120c0 2.207031-1.792969 4-4 4zm-76-8h72v-112h-72zm0 0"/>
        <path d="m288 392c-13.230469 0-24-10.769531-24-24v-148c0-2.207031 1.792969-4 4-4h79.984375c1.527344 0 2.925781.871094 3.601563 2.257812l27.046874 55.78125c5.296876 10.953126 3.984376 23.777344-3.425781 33.472657-5.976562 7.824219-15.992187 12.496093-26.78125 12.496093h-24.425781c-2.207031 0-4-1.792968-4-4 0-2.207031 1.792969-4 4-4h24.433594c8.308594 0 15.949218-3.496093 20.421875-9.351562 5.558593-7.28125 6.550781-16.914062 2.578125-25.128906l-25.953125-53.519532h-73.480469v144c0 8.824219 7.175781 16 16 16s16-7.175781 16-16v-138.808593c0-1.863281 1.289062-3.480469 3.105469-3.894531 1.832031-.425782 3.6875.480468 4.496093 2.152343l22.6875 46.800781c.597657 1.238282.519532 2.703126-.210937 3.871094-.726563 1.167969-2.015625 1.871094-3.390625 1.871094h-6.6875c-2.207031 0-4-1.792969-4-4s1.792969-4 4-4h.304688l-12.304688-25.375v121.375c0 13.230469-10.769531 24-24 24zm0 0"/>
        <path d="m268 151.015625c-1.097656 0-2.160156-.449219-2.929688-1.28125l-42.65625-45.933594c-4.132812-4.449219-6.414062-10.25-6.414062-16.335937v-67.464844c0-11.023438 8.976562-20 20-20s20 8.976562 20 20v59.617188c0 1.007812.382812 1.984374 1.070312 2.726562l13.859376 14.921875c.6875.734375 1.070312 1.710937 1.070312 2.71875v47.023437c0 1.648438-1.007812 3.121094-2.535156 3.71875-.480469.203126-.96875.289063-1.464844.289063zm-32-143.015625c-6.617188 0-12 5.382812-12 12v67.472656c0 4.054688 1.519531 7.917969 4.273438 10.886719l35.726562 38.472656v-35.273437l-12.800781-13.773438c-2.070313-2.242187-3.199219-5.136718-3.199219-8.167968v-59.617188c0-6.617188-5.382812-12-12-12zm0 0"/>
        <path d="m204 195.679688c-.488281 0-.976562-.085938-1.441406-.273438-1.542969-.589844-2.558594-2.078125-2.558594-3.726562v-35.679688c0-1 .367188-1.953125 1.039062-2.6875l13.921876-15.320312c.664062-.734376 1.039062-1.6875 1.039062-2.679688v-22.351562c0-2.207032 1.792969-4 4-4s4 1.792968 4 4v22.34375c0 2.984374-1.105469 5.847656-3.121094 8.0625l-12.878906 14.175781v23.785156l24.710938-27.183594c3.96875-4.359375 6.394531-9.914062 7.007812-16.054687.226562-2.195313 2.203125-3.746094 4.386719-3.578125 2.199219.222656 3.796875 2.183593 3.574219 4.382812-.800782 7.859375-3.925782 15-9.046876 20.640625l-31.671874 34.839844c-.777344.847656-1.855469 1.304688-2.960938 1.304688zm0 0"/>
        <path d="m16 364.34375h-12c-2.207031 0-4-1.792969-4-4s1.792969-4 4-4h12c2.207031 0 4 1.792969 4 4s-1.792969 4-4 4zm0 0"/>
        <path d="m102 364.34375h-72c-2.207031 0-4-1.792969-4-4s1.792969-4 4-4h72c2.207031 0 4 1.792969 4 4s-1.792969 4-4 4zm0 0"/>
        <path d="m458 364.34375h-72c-2.207031 0-4-1.792969-4-4s1.792969-4 4-4h72c2.207031 0 4 1.792969 4 4s-1.792969 4-4 4zm0 0"/>
        <path d="m484 364.34375h-12c-2.207031 0-4-1.792969-4-4s1.792969-4 4-4h12c2.207031 0 4 1.792969 4 4s-1.792969 4-4 4zm0 0"/>
        <path d="m92 80h-32c-2.207031 0-4-1.792969-4-4s1.792969-4 4-4h32c2.207031 0 4 1.792969 4 4s-1.792969 4-4 4zm0 0"/>
        <path d="m76 96c-2.207031 0-4-1.792969-4-4v-32c0-2.207031 1.792969-4 4-4s4 1.792969 4 4v32c0 2.207031-1.792969 4-4 4zm0 0"/>
        <path d="m140 40h-32c-2.207031 0-4-1.792969-4-4s1.792969-4 4-4h32c2.207031 0 4 1.792969 4 4s-1.792969 4-4 4zm0 0"/>
        <path d="m124 56c-2.207031 0-4-1.792969-4-4v-32c0-2.207031 1.792969-4 4-4s4 1.792969 4 4v32c0 2.207031-1.792969 4-4 4zm0 0"/>
    </g>
</svg>