<svg height="488pt" viewBox="0 -32 488 488" width="488pt" xmlns="http://www.w3.org/2000/svg">
    <path d="m340 180.664062h-1.0625c-11.175781 18.726563-31.585938 31.335938-54.9375 31.335938h-96c-23.351562 0-43.761719-12.609375-54.9375-31.335938h-1.0625c-22.089844 0-40 17.910157-40 40v2.160157c0 21.230469 16.585938 38.761719 37.785156 39.9375l208 11.550781c22.925782 1.28125 42.214844-16.96875 42.214844-39.929688v-13.71875c0-22.089843-17.910156-40-40-40zm0 0"
          fill="#71BF41"/>
    <path d="m484 424h-16c-2.207031 0-4-1.792969-4-4s1.792969-4 4-4h16c2.207031 0 4 1.792969 4 4s-1.792969 4-4 4zm0 0"
          fill="#263238"/>
    <path d="m452 424h-60c-2.207031 0-4-1.792969-4-4s1.792969-4 4-4h60c2.207031 0 4 1.792969 4 4s-1.792969 4-4 4zm0 0"
          fill="#263238"/>
    <path d="m20 144h-16c-2.207031 0-4-1.792969-4-4s1.792969-4 4-4h16c2.207031 0 4 1.792969 4 4s-1.792969 4-4 4zm0 0"
          fill="#263238"/>
    <path d="m96 144h-60c-2.207031 0-4-1.792969-4-4s1.792969-4 4-4h60c2.207031 0 4 1.792969 4 4s-1.792969 4-4 4zm0 0"
          fill="#263238"/>
    <path d="m340.078125 278.382812c-.832031 0-1.671875-.023437-2.511719-.070312l-208-11.550781c-23.300781-1.296875-41.558594-20.59375-41.558594-43.929688v-2.167969c0-24.265624 19.746094-44 44-44h1.0625c2.210938 0 4 1.792969 4 4 0 2.207032-1.789062 4-4 4h-1.070312c-19.847656 0-36 16.152344-36 36v2.167969c0 19.097657 14.9375 34.878907 34 35.945313l208 11.550781c10.128906.503906 19.488281-2.929687 26.742188-9.792969 7.257812-6.871094 11.257812-16.160156 11.257812-26.152344v-13.71875c0-19.847656-16.152344-36-36-36h-1.0625c-2.210938 0-4-1.792968-4-4 0-2.207031 1.789062-4 4-4h1.0625c24.257812 0 44 19.734376 44 44v13.71875c0 12.21875-4.886719 23.570313-13.769531 31.960938-8.253907 7.816406-18.878907 12.039062-30.152344 12.039062zm0 0"
          fill="#263238"/>
    <path d="m316 76c0-22.089844-35.816406-40-80-40s-80 17.910156-80 40 35.816406 40 80 40 80-17.910156 80-40zm0 0"
          fill="#FCB600"/>
    <g fill="#263238">
        <path d="m236 120c-47.105469 0-84-19.328125-84-44s36.894531-44 84-44 84 19.328125 84 44-36.894531 44-84 44zm0-80c-41.191406 0-76 16.488281-76 36s34.808594 36 76 36 76-16.488281 76-36-34.808594-36-76-36zm0 0"/>
        <path d="m292.238281 81.03125c-1.621093 0-3.039062-.96875-3.679687-2.351562-.070313-.078126-.144532-.167969-.207032-.253907-2.945312-3.851562-20.839843-14.425781-52.351562-14.425781-2.207031 0-4-1.792969-4-4s1.792969-4 4-4c32.96875 0 53.503906 10.777344 58.710938 17.566406.167968.226563.3125.464844.441406.714844.679687.71875 1.09375 1.6875 1.09375 2.75-.007813 2.214844-1.789063 4-4.007813 4zm0 0"/>
        <path d="m284 200h-96c-28.671875 0-52-23.328125-52-52 0-16.222656 7.414062-31.238281 20.335938-41.183594 1.742187-1.351562 4.25-1.03125 5.609374.726563 1.34375 1.753906 1.015626 4.265625-.738281 5.609375-10.933593 8.421875-17.207031 21.121094-17.207031 34.847656 0 24.265625 19.742188 44 44 44h96c24.257812 0 44-19.734375 44-44 0-13.726562-6.273438-26.425781-17.207031-34.847656-1.753907-1.34375-2.082031-3.855469-.738281-5.609375 1.34375-1.75 3.867187-2.070313 5.609374-.726563 12.921876 9.945313 20.335938 24.960938 20.335938 41.183594 0 28.671875-23.328125 52-52 52zm0 0"/>
        <path d="m236 408c-109.902344 0-196-36.894531-196-84 0-22.769531 20.375-43.960938 57.367188-59.671875 2.007812-.871094 4.375.078125 5.242187 2.121094.863281 2.03125-.089844 4.375-2.121094 5.238281-33.847656 14.382812-52.488281 32.960938-52.488281 52.3125 0 41.191406 86.097656 76 188 76s188-34.808594 188-76c0-17.503906-15.695312-34.742188-44.199219-48.542969-1.992187-.96875-2.824219-3.351562-1.855469-5.34375.964844-1.984375 3.351563-2.808593 5.34375-1.855469 31.414063 15.207032 48.71875 35.007813 48.71875 55.742188-.007812 47.105469-86.105468 84-196.007812 84zm0 0"/>
        <path d="m388 24h-32c-2.207031 0-4-1.792969-4-4s1.792969-4 4-4h32c2.207031 0 4 1.792969 4 4s-1.792969 4-4 4zm0 0"/>
        <path d="m372 40c-2.207031 0-4-1.792969-4-4v-32c0-2.207031 1.792969-4 4-4s4 1.792969 4 4v32c0 2.207031-1.792969 4-4 4zm0 0"/>
        <path d="m428 76h-32c-2.207031 0-4-1.792969-4-4s1.792969-4 4-4h32c2.207031 0 4 1.792969 4 4s-1.792969 4-4 4zm0 0"/>
        <path d="m412 92c-2.207031 0-4-1.792969-4-4v-32c0-2.207031 1.792969-4 4-4s4 1.792969 4 4v32c0 2.207031-1.792969 4-4 4zm0 0"/>
    </g>
</svg>