<svg height="488pt" viewBox="-10 0 488 488.608" width="488pt" xmlns="http://www.w3.org/2000/svg"><path d="m234.304688 255.40625c-2.207032 0-4-1.789062-4-4v-32c0-6.613281-5.382813-12-12-12-6.617188 0-12 5.386719-12 12v32c0 2.210938-1.792969 4-4 4-2.207032 0-4-1.789062-4-4v-32c0-11.023438 8.976562-20 20-20 11.023437 0 20 8.976562 20 20v32c0 2.210938-1.792969 4-4 4zm0 0" fill="#263238"/><path d="m202.566406 399.65625-76.160156-58.441406c-7.007812-5.375-8.335938-15.421875-2.949219-22.429688 5.375-7.007812 15.421875-8.335937 22.429688-2.953125l76.160156 58.441407c7.007813 5.375 8.335937 15.421874 2.953125 22.429687-5.375 7.015625-15.425781 8.335937-22.433594 2.953125zm0 0" fill="#FCB600"/><path d="m212.289062 406.960938c-4.25 0-8.527343-1.34375-12.152343-4.128907l-76.160157-58.441406c-4.242187-3.246094-6.960937-7.957031-7.65625-13.253906-.695312-5.296875.710938-10.542969 3.96875-14.792969 6.710938-8.734375 19.285157-10.398438 28.039063-3.6875l76.160156 58.441406c8.75 6.710938 10.40625 19.285156 3.6875 28.039063-3.9375 5.128906-9.878906 7.824219-15.886719 7.824219zm-7.289062-10.472657c5.265625 4.03125 12.808594 3.023438 16.832031-2.214843 4.023438-5.25 3.03125-12.800782-2.214843-16.832032l-76.160157-58.441406c-5.257812-4.03125-12.808593-3.03125-16.832031 2.214844-1.953125 2.546875-2.800781 5.695312-2.378906 8.875.417968 3.175781 2.050781 6 4.59375 7.949218zm0 0" fill="#263238"/><path d="m183.089844 425.046875-76.160156-58.4375c-7.007813-5.378906-8.335938-15.425781-2.953126-22.433594 5.375-7.007812 15.421876-8.335937 22.429688-2.953125l76.160156 58.441406c7.007813 5.375 8.335938 15.425782 2.953125 22.433594-5.375 7.007813-15.421875 8.328125-22.429687 2.949219zm0 0" fill="#FCB600"/><path d="m192.800781 432.34375c-4.25 0-8.527343-1.34375-12.152343-4.128906l-76.160157-58.4375c-4.242187-3.25-6.960937-7.960938-7.65625-13.257813-.695312-5.296875.710938-10.542969 3.96875-14.792969 6.710938-8.734374 19.296875-10.398437 28.039063-3.6875l76.160156 58.441407c8.753906 6.710937 10.40625 19.289062 3.6875 28.039062-3.925781 5.128907-9.878906 7.824219-15.886719 7.824219zm-7.28125-10.472656c5.257813 4.03125 12.800781 3.03125 16.832031-2.214844 4.023438-5.25 3.03125-12.800781-2.214843-16.832031l-76.160157-58.441407c-5.257812-4.023437-12.808593-3.03125-16.832031 2.21875-1.953125 2.542969-2.800781 5.695313-2.375 8.871094.414063 3.175782 2.046875 6 4.589844 7.953125zm0 0" fill="#263238"/><path d="m226.863281 361.808594c-.757812 0-1.527343-.214844-2.207031-.664063-1.839844-1.222656-2.335938-3.703125-1.121094-5.542969l.730469-1.097656c3.949219-5.929687 6.039063-12.832031 6.039063-19.953125v-232.191406c0-8.246094-6.703126-14.960937-14.953126-14.960937-6.160156 0-11.765624 3.867187-13.976562 9.617187l-39.238281 102.640625c-5.03125 13.160156-6.304688 27.441406-3.679688 41.28125l9.71875 51.328125c.976563 5.132813.214844 10.535156-2.121093 15.199219l-.984376 1.960937c-.980468 1.972657-3.367187 2.796875-5.359374 1.789063-1.976563-.984375-2.78125-3.382813-1.789063-5.359375l.980469-1.96875c1.5625-3.117188 2.058594-6.710938 1.417968-10.144531l-9.71875-51.328126c-2.898437-15.300781-1.488281-31.078124 4.070313-45.628906l39.238281-102.640625c3.378906-8.832031 11.992188-14.761719 21.441406-14.761719 12.65625 0 22.953126 10.296876 22.953126 22.960938v232.199219c0 8.703125-2.550782 17.144531-7.375 24.386719l-.722657 1.085937c-.773437 1.160156-2.046875 1.792969-3.34375 1.792969zm0 0" fill="#263238"/><path d="m142.425781 488.609375c-.761719 0-1.53125-.21875-2.21875-.671875-1.832031-1.226562-2.335937-3.707031-1.109375-5.546875l30.757813-46.191406c.136719-.3125.3125-.597657.527343-.871094 1.394532-1.710937 3.769532-2.070313 5.480469-.6875 1.671875 1.28125 2.175781 3.695313 1.007813 5.457031l-31.117188 46.734375c-.769531 1.144531-2.035156 1.777344-3.328125 1.777344zm0 0" fill="#263238"/><path d="m59.921875 425.296875c-.953125 0-1.90625-.335937-2.664063-1.015625-1.648437-1.472656-1.792968-4-.320312-5.648438l37.414062-41.871093c1.488282-1.65625 4-1.785157 5.648438-.320313 1.648438 1.46875 1.792969 4 .320312 5.648438l-37.417968 41.871094c-.789063.878906-1.886719 1.335937-2.980469 1.335937zm0 0" fill="#263238"/><path d="m266.304688 255.40625c-2.207032 0-4-1.789062-4-4v-32c0-6.613281-5.382813-12-12-12-6.617188 0-12 5.386719-12 12v32c0 2.210938-1.792969 4-4 4-2.207032 0-4-1.789062-4-4v-32c0-11.023438 8.976562-20 20-20 11.023437 0 20 8.976562 20 20v32c0 2.210938-1.792969 4-4 4zm0 0" fill="#263238"/><path d="m266.039062 399.65625 76.160157-58.441406c7.007812-5.375 8.335937-15.421875 2.953125-22.429688-5.375-7.007812-15.425782-8.335937-22.433594-2.953125l-76.160156 58.441407c-7.007813 5.375-8.335938 15.421874-2.949219 22.429687 5.375 7.015625 15.421875 8.335937 22.429687 2.953125zm0 0" fill="#FCB600"/><path d="m256.320312 406.960938c-6.007812 0-11.960937-2.6875-15.886718-7.816407-6.714844-8.753906-5.058594-21.328125 3.6875-28.039062l76.160156-58.441407c8.742188-6.710937 21.335938-5.054687 28.039062 3.6875 3.253907 4.242188 4.664063 9.488282 3.96875 14.785157-.695312 5.296875-3.417968 10-7.65625 13.253906l-76.160156 58.441406c-3.617187 2.785157-7.898437 4.128907-12.152344 4.128907zm9.71875-7.304688h.082032zm66.410157-83.128906c-2.546875 0-5.121094.808594-7.296875 2.472656l-76.160156 58.441406c-5.25 4.023438-6.238282 11.574219-2.214844 16.832032 4.023437 5.246093 11.566406 6.238281 16.832031 2.214843l76.160156-58.441406c2.542969-1.949219 4.175781-4.773437 4.589844-7.949219.417969-3.175781-.421875-6.328125-2.375-8.875-2.359375-3.078125-5.929687-4.695312-9.535156-4.695312zm0 0" fill="#263238"/><path d="m285.519531 425.046875 76.160157-58.4375c7.007812-5.378906 8.335937-15.425781 2.953124-22.433594-5.375-7.007812-15.425781-8.335937-22.433593-2.953125l-76.160157 58.441406c-7.007812 5.375-8.335937 15.425782-2.949218 22.433594 5.375 7.007813 15.421875 8.328125 22.429687 2.949219zm0 0" fill="#FCB600"/><g fill="#263238"><path d="m275.808594 432.34375c-6.007813 0-11.960938-2.6875-15.886719-7.816406-6.714844-8.75-5.058594-21.328125 3.6875-28.039063l76.160156-58.441406c8.75-6.710937 21.335938-5.046875 28.039063 3.6875 6.710937 8.753906 5.054687 21.328125-3.6875 28.042969l-76.160156 58.4375c-3.625 2.785156-7.90625 4.128906-12.152344 4.128906zm9.710937-7.296875h.082031zm66.410157-83.125c-2.546876 0-5.121094.804687-7.296876 2.46875l-76.160156 58.441406c-5.25 4.023438-6.242187 11.574219-2.214844 16.832031 4.023438 5.246094 11.574219 6.246094 16.832032 2.214844l76.15625-58.4375c5.25-4.027344 6.242187-11.578125 2.21875-16.832031-2.359375-3.082031-5.929688-4.6875-9.535156-4.6875zm0 0"/><path d="m241.742188 361.808594c-1.292969 0-2.566407-.632813-3.335938-1.785156l-.726562-1.09375c-4.824219-7.242188-7.375-15.671876-7.375-24.386719v-232.183594c0-12.664063 10.296874-22.960937 22.953124-22.960937 9.445313 0 18.0625 5.929687 21.4375 14.761718l39.242188 102.640625c5.558594 14.550781 6.972656 30.328125 4.070312 45.632813l-9.71875 51.328125c-.648437 3.421875-.144531 7.015625 1.414063 10.132812l.984375 1.96875c.992188 1.976563.183594 4.375-1.792969 5.359375-1.972656 1-4.375.183594-5.359375-1.789062l-.984375-1.96875c-2.335937-4.664063-3.085937-10.066406-2.117187-15.191406l9.71875-51.328126c2.625-13.839843 1.34375-28.121093-3.679688-41.28125l-39.242187-102.640624c-2.199219-5.75-7.816407-9.617188-13.972657-9.617188-8.25 0-14.953124 6.714844-14.953124 14.960938v232.175781c0 7.128906 2.085937 14.023437 6.03125 19.953125l.726562 1.097656c1.226562 1.839844.722656 4.328125-1.117188 5.542969-.671874.457031-1.441406.671875-2.203124.671875zm0 0"/><path d="m326.183594 488.609375c-1.296875 0-2.558594-.625-3.335938-1.785156l-31.121094-46.734375c-1.167968-1.761719-.773437-4.121094.898438-5.394532 1.71875-1.390624 4.296875-1.160156 5.679688.550782.351562.433594.597656.921875.75 1.425781l30.449218 45.710937c1.222656 1.839844.726563 4.328126-1.113281 5.546876-.679687.453124-1.445313.679687-2.207031.679687zm0 0"/><path d="m408.6875 425.296875c-1.09375 0-2.191406-.449219-2.984375-1.335937l-37.414063-41.871094c-1.472656-1.648438-1.328124-4.179688.320313-5.648438 1.648437-1.464844 4.167969-1.335937 5.648437.320313l37.414063 41.871093c1.472656 1.648438 1.328125 4.175782-.320313 5.648438-.757812.679688-1.710937 1.015625-2.664062 1.015625zm0 0"/><path d="m234.304688 64c-2.207032 0-4-1.792969-4-4v-56c0-2.207031 1.792968-4 4-4 2.207031 0 4 1.792969 4 4v56c0 2.214844-1.792969 4-4 4zm0 0"/><path d="m102.304688 224h-72c-2.207032 0-4-1.792969-4-4s1.792968-4 4-4h72c2.207031 0 4 1.792969 4 4s-1.792969 4-4 4zm0 0"/><path d="m438.304688 224h-72c-2.207032 0-4-1.792969-4-4s1.792968-4 4-4h72c2.207031 0 4 1.792969 4 4s-1.792969 4-4 4zm0 0"/><path d="m129.648438 119.351562c-1.023438 0-2.046876-.390624-2.832032-1.167968l-28.289062-28.289063c-1.558594-1.558593-1.558594-4.09375 0-5.65625 1.5625-1.558593 4.097656-1.558593 5.65625 0l28.289062 28.289063c1.558594 1.5625 1.558594 4.097656 0 5.65625-.777344.785156-1.800781 1.167968-2.824218 1.167968zm0 0"/><path d="m338.960938 119.351562c-1.023438 0-2.050782-.390624-2.832032-1.167968-1.5625-1.558594-1.5625-4.09375 0-5.65625l28.285156-28.289063c1.5625-1.558593 4.097657-1.558593 5.65625 0 1.5625 1.5625 1.5625 4.097657 0 5.65625l-28.285156 28.289063c-.785156.785156-1.808594 1.167968-2.824218 1.167968zm0 0"/><path d="m16.304688 224h-12c-2.207032 0-4-1.792969-4-4s1.792968-4 4-4h12c2.207031 0 4 1.792969 4 4s-1.792969 4-4 4zm0 0"/><path d="m464.304688 224h-12c-2.207032 0-4-1.792969-4-4s1.792968-4 4-4h12c2.207031 0 4 1.792969 4 4s-1.792969 4-4 4zm0 0"/></g></svg>